<svg width="62" height="65" viewBox="0 0 62 65" fill="none" xmlns="http://www.w3.org/2000/svg">
<g id="Vector" filter="url(#filter0_d_1_43)">
<path d="M41.0435 23.6226C38.7091 23.6226 36.503 24.095 34.4509 24.9348L32.6552 16.9303L42.6339 6.72118C44.1217 5.25149 44.1217 2.70579 42.6339 1.15737C41.1461 -0.391053 38.6835 -0.380556 37.1956 1.15737L27.217 11.3664L3.61696 5.80263L0 9.50309L19.0596 19.6859L9.08087 29.9212L2.71913 29.0027L0 31.7846L8.15739 36.4036L12.6978 44.7756L15.3913 41.9937L14.5191 35.4326L24.4978 25.276L27.1143 30.4199C24.9724 33.1129 23.6208 36.3722 23.2165 39.8194C22.8121 43.2666 23.3716 46.7605 24.8299 49.8955C26.2882 53.0306 28.5855 55.6783 31.4554 57.5314C34.3252 59.3844 37.6499 60.3669 41.0435 60.3647C50.9709 60.3647 59 52.1502 59 41.9937C59 31.8371 50.9709 23.6226 41.0435 23.6226ZM41.0435 55.1159C33.9635 55.1159 28.2174 49.2371 28.2174 41.9937C28.2174 34.7502 33.9635 28.8715 41.0435 28.8715C48.1235 28.8715 53.8696 34.7502 53.8696 41.9937C53.8696 49.2371 48.1235 55.1159 41.0435 55.1159ZM42.3261 42.6498V31.4959H38.4783V44.6181L47.7387 50.2869L49.6626 47.0851L42.3261 42.6498Z" fill="#190202" fill-opacity="0.48" shape-rendering="crispEdges"/>
</g>
<defs>
<filter id="filter0_d_1_43" x="0" y="-1.52588e-05" width="61.1" height="64.4648" filterUnits="userSpaceOnUse" color-interpolation-filters="sRGB">
<feFlood flood-opacity="0" result="BackgroundImageFix"/>
<feColorMatrix in="SourceAlpha" type="matrix" values="0 0 0 0 0 0 0 0 0 0 0 0 0 0 0 0 0 0 127 0" result="hardAlpha"/>
<feOffset dx="2" dy="4"/>
<feGaussianBlur stdDeviation="0.05"/>
<feComposite in2="hardAlpha" operator="out"/>
<feColorMatrix type="matrix" values="0 0 0 0 0 0 0 0 0 0 0 0 0 0 0 0 0 0 0.25 0"/>
<feBlend mode="normal" in2="BackgroundImageFix" result="effect1_dropShadow_1_43"/>
<feBlend mode="normal" in="SourceGraphic" in2="effect1_dropShadow_1_43" result="shape"/>
</filter>
</defs>
</svg>
