<svg width="18" height="19" viewBox="0 0 18 19" fill="none" xmlns="http://www.w3.org/2000/svg">
<path id="Vector" d="M10.5517 18.1824C12.0249 18.1824 13.4649 17.6545 14.6898 16.6656C15.9146 15.6767 16.8693 14.2711 17.433 12.6265C17.9968 10.982 18.1443 9.17239 17.8569 7.42656C17.5695 5.68073 16.8601 4.07709 15.8184 2.81842C14.7768 1.55974 13.4496 0.702576 12.0048 0.35531C10.56 0.00804262 9.06239 0.186273 7.70139 0.867461C6.3404 1.54865 5.17714 2.7022 4.35871 4.18224C3.54028 5.66229 3.10345 7.40234 3.10345 9.18238V13.8324L0.868965 11.1324L0 12.1824L3.72414 16.6824L7.44827 12.1824L6.57931 11.1324L4.34483 13.8324V9.18238C4.34483 7.69902 4.70885 6.24897 5.39088 5.0156C6.0729 3.78223 7.04228 2.82094 8.17645 2.25328C9.31061 1.68562 10.5586 1.5371 11.7626 1.82649C12.9666 2.11588 14.0726 2.83018 14.9407 3.87908C15.8087 4.92797 16.3999 6.26434 16.6394 7.7192C16.8788 9.17406 16.7559 10.6821 16.2861 12.0525C15.8164 13.4229 15.0208 14.5943 14.0001 15.4184C12.9794 16.2425 11.7793 16.6824 10.5517 16.6824V18.1824Z" fill="#F4F4F4"/>
</svg>
