<svg width="18" height="17" viewBox="0 0 18 17" fill="none" xmlns="http://www.w3.org/2000/svg">
<path id="Vector" d="M9.475 0.351964C9.34099 0.242294 9.17316 0.182373 9 0.182373C8.82684 0.182373 8.65901 0.242294 8.525 0.351964L5.775 2.60196C5.62769 2.72994 5.53605 2.91029 5.51955 3.10473C5.50305 3.29917 5.56298 3.49238 5.68662 3.64336C5.81026 3.79433 5.98787 3.89116 6.18175 3.91331C6.37562 3.93545 6.5705 3.88116 6.725 3.76196L9 1.90196L11.275 3.76196C11.3507 3.82776 11.4389 3.87769 11.5343 3.9088C11.6297 3.93991 11.7303 3.95157 11.8303 3.94309C11.9303 3.9346 12.0275 3.90615 12.1163 3.85941C12.205 3.81267 12.2835 3.74859 12.3471 3.67097C12.4107 3.59336 12.458 3.50377 12.4863 3.40753C12.5147 3.31128 12.5234 3.21034 12.512 3.11066C12.5006 3.01098 12.4694 2.9146 12.4201 2.82722C12.3708 2.73985 12.3044 2.66325 12.225 2.60196L9.475 0.351964ZM12.225 13.762L9.475 16.012C9.34099 16.1216 9.17316 16.1816 9 16.1816C8.82684 16.1816 8.65901 16.1216 8.525 16.012L5.775 13.762C5.62769 13.634 5.53605 13.4536 5.51955 13.2592C5.50305 13.0648 5.56298 12.8715 5.68662 12.7206C5.81026 12.5696 5.98787 12.4728 6.18175 12.4506C6.37562 12.4285 6.5705 12.4828 6.725 12.602L9 14.462L11.275 12.601C11.3507 12.5352 11.4389 12.4852 11.5343 12.4541C11.6297 12.423 11.7303 12.4114 11.8303 12.4198C11.9303 12.4283 12.0275 12.4568 12.1163 12.5035C12.205 12.5503 12.2835 12.6143 12.3471 12.692C12.4107 12.7696 12.458 12.8592 12.4863 12.9554C12.5147 13.0516 12.5234 13.1526 12.512 13.2523C12.5006 13.3519 12.4694 13.4483 12.4201 13.5357C12.3708 13.6231 12.3044 13.7007 12.225 13.762ZM9.75 6.93196C9.75 7.13088 9.67098 7.32164 9.53033 7.46229C9.38968 7.60295 9.19891 7.68196 9 7.68196C8.80109 7.68196 8.61032 7.60295 8.46967 7.46229C8.32902 7.32164 8.25 7.13088 8.25 6.93196C8.25 6.73305 8.32902 6.54229 8.46967 6.40163C8.61032 6.26098 8.80109 6.18196 9 6.18196C9.19891 6.18196 9.38968 6.26098 9.53033 6.40163C9.67098 6.54229 9.75 6.73305 9.75 6.93196ZM9 10.182C9.19891 10.182 9.38968 10.1029 9.53033 9.96229C9.67098 9.82164 9.75 9.63088 9.75 9.43196C9.75 9.23305 9.67098 9.04229 9.53033 8.90163C9.38968 8.76098 9.19891 8.68196 9 8.68196C8.80109 8.68196 8.61032 8.76098 8.46967 8.90163C8.32902 9.04229 8.25 9.23305 8.25 9.43196C8.25 9.63088 8.32902 9.82164 8.46967 9.96229C8.61032 10.1029 8.80109 10.182 9 10.182ZM15 7.68196C15 7.28414 15.158 6.90261 15.4393 6.6213C15.7206 6.34 16.1022 6.18196 16.5 6.18196C16.8978 6.18196 17.2794 6.34 17.5607 6.6213C17.842 6.90261 18 7.28414 18 7.68196V8.68196C18 9.07979 17.842 9.46132 17.5607 9.74262C17.2794 10.0239 16.8978 10.182 16.5 10.182C16.1022 10.182 15.7206 10.0239 15.4393 9.74262C15.158 9.46132 15 9.07979 15 8.68196V7.68196ZM16.5 7.18196C16.3674 7.18196 16.2402 7.23464 16.1464 7.32841C16.0527 7.42218 16 7.54936 16 7.68196V8.68196C16 8.81457 16.0527 8.94175 16.1464 9.03552C16.2402 9.12929 16.3674 9.18196 16.5 9.18196C16.6326 9.18196 16.7598 9.12929 16.8536 9.03552C16.9473 8.94175 17 8.81457 17 8.68196V7.68196C17 7.54936 16.9473 7.42218 16.8536 7.32841C16.7598 7.23464 16.6326 7.18196 16.5 7.18196ZM5.5 6.18196C5.10218 6.18196 4.72064 6.34 4.43934 6.6213C4.15804 6.90261 4 7.28414 4 7.68196V8.68196C4 9.07979 4.15804 9.46132 4.43934 9.74262C4.72064 10.0239 5.10218 10.182 5.5 10.182C5.89782 10.182 6.27936 10.0239 6.56066 9.74262C6.84196 9.46132 7 9.07979 7 8.68196V7.68196C7 7.28414 6.84196 6.90261 6.56066 6.6213C6.27936 6.34 5.89782 6.18196 5.5 6.18196ZM5 7.68196C5 7.54936 5.05268 7.42218 5.14645 7.32841C5.24021 7.23464 5.36739 7.18196 5.5 7.18196C5.63261 7.18196 5.75979 7.23464 5.85355 7.32841C5.94732 7.42218 6 7.54936 6 7.68196V8.68196C6 8.81457 5.94732 8.94175 5.85355 9.03552C5.75979 9.12929 5.63261 9.18196 5.5 9.18196C5.36739 9.18196 5.24021 9.12929 5.14645 9.03552C5.05268 8.94175 5 8.81457 5 8.68196V7.68196ZM11 7.68196C11 7.28414 11.158 6.90261 11.4393 6.6213C11.7206 6.34 12.1022 6.18196 12.5 6.18196C12.8978 6.18196 13.2794 6.34 13.5607 6.6213C13.842 6.90261 14 7.28414 14 7.68196V8.68196C14 9.07979 13.842 9.46132 13.5607 9.74262C13.2794 10.0239 12.8978 10.182 12.5 10.182C12.1022 10.182 11.7206 10.0239 11.4393 9.74262C11.158 9.46132 11 9.07979 11 8.68196V7.68196ZM12.5 7.18196C12.3674 7.18196 12.2402 7.23464 12.1464 7.32841C12.0527 7.42218 12 7.54936 12 7.68196V8.68196C12 8.81457 12.0527 8.94175 12.1464 9.03552C12.2402 9.12929 12.3674 9.18196 12.5 9.18196C12.6326 9.18196 12.7598 9.12929 12.8536 9.03552C12.9473 8.94175 13 8.81457 13 8.68196V7.68196C13 7.54936 12.9473 7.42218 12.8536 7.32841C12.7598 7.23464 12.6326 7.18196 12.5 7.18196ZM1.5 6.18196C1.10218 6.18196 0.720644 6.34 0.43934 6.6213C0.158035 6.90261 0 7.28414 0 7.68196V8.68196C0 9.07979 0.158035 9.46132 0.43934 9.74262C0.720644 10.0239 1.10218 10.182 1.5 10.182C1.89782 10.182 2.27936 10.0239 2.56066 9.74262C2.84196 9.46132 3 9.07979 3 8.68196V7.68196C3 7.28414 2.84196 6.90261 2.56066 6.6213C2.27936 6.34 1.89782 6.18196 1.5 6.18196ZM1 7.68196C1 7.54936 1.05268 7.42218 1.14645 7.32841C1.24021 7.23464 1.36739 7.18196 1.5 7.18196C1.63261 7.18196 1.75979 7.23464 1.85355 7.32841C1.94732 7.42218 2 7.54936 2 7.68196V8.68196C2 8.81457 1.94732 8.94175 1.85355 9.03552C1.75979 9.12929 1.63261 9.18196 1.5 9.18196C1.36739 9.18196 1.24021 9.12929 1.14645 9.03552C1.05268 8.94175 1 8.81457 1 8.68196V7.68196Z" fill="#F9F9F9"/>
</svg>
